<?xml version="1.0" encoding="UTF-8" standalone="no"?>
<svg
   xmlns:dc="http://purl.org/dc/elements/1.1/"
   xmlns:cc="http://creativecommons.org/ns#"
   xmlns:rdf="http://www.w3.org/1999/02/22-rdf-syntax-ns#"
   xmlns:svg="http://www.w3.org/2000/svg"
   xmlns="http://www.w3.org/2000/svg"
   viewBox="0 0 576.70667 374.17334"
   height="374.17334"
   width="576.70667"
   xml:space="preserve"
   id="svg2"
   version="1.1"><metadata
     id="metadata8"><rdf:RDF><cc:Work
         rdf:about=""><dc:format>image/svg+xml</dc:format><dc:type
           rdf:resource="http://purl.org/dc/dcmitype/StillImage" /></cc:Work></rdf:RDF></metadata><defs
     id="defs6" /><g
     transform="matrix(1.3333333,0,0,-1.3333333,0,374.17333)"
     id="g10"><g
       transform="scale(0.1)"
       id="g12"><path
         id="path14"
         style="fill:#ffffff;fill-opacity:1;fill-rule:nonzero;stroke:none"
         d="m 1280.15,661.488 c 0,-68.148 -12.02,-136.308 -32.07,-196.437 C 1167.91,196.461 931.371,0 650.738,0 h -3.996 C 301.961,0 17.3281,296.672 17.3281,661.488 c 0,28.063 8.0078,52.102 16.0352,72.153 28.0625,52.129 80.1677,88.218 144.3167,88.218 64.144,0 116.25,-36.089 144.328,-88.218 12.023,-20.051 16.039,-44.09 16.039,-72.153 0,-92.187 32.074,-180.398 96.219,-244.547 56.121,-60.132 132.293,-96.203 212.476,-96.203 80.164,0 156.336,36.071 216.488,96.203 60.133,64.149 96.204,152.36 96.204,244.547 0,28.063 4.011,52.102 16.035,72.153 24.062,52.129 80.181,88.218 144.331,88.218 60.13,0 116.25,-36.089 144.31,-88.218 8.03,-20.051 16.04,-44.09 16.04,-72.153" /><path
         id="path16"
         style="fill:#ffffff;fill-opacity:1;fill-rule:nonzero;stroke:none"
         d="M 2150.06,0.0117188 C 1805.3,0.0117188 1520.65,296.66 1520.65,661.5 c 0,88.191 72.16,160.352 160.37,160.352 88.19,0 160.35,-72.161 160.35,-160.352 0,-92.211 32.07,-180.398 96.22,-244.551 56.14,-64.148 132.31,-96.219 212.47,-96.219 80.19,0 156.36,32.071 216.49,96.219 60.13,64.153 96.22,152.34 96.22,244.551 0,88.191 72.16,160.352 160.37,160.352 88.19,0 160.35,-72.161 160.35,-160.352 0,-364.84 -284.63,-661.4882812 -633.43,-661.4882812" /><path
         id="path18"
         style="fill:#ffffff;fill-opacity:1;fill-rule:nonzero;stroke:none"
         d="M 646.738,2806.3 C 381.234,2803.55 137.43,2620.49 54.2422,2368.77 -5.03906,2189.34 62.0352,1999.18 161.926,1848.96 347.227,1570.24 530.176,1289.94 714.32,1010.45 775.973,916.852 837.641,823.25 899.297,729.648 931.766,836.34 1067.87,926.809 1179.93,881.969 963.043,1212.31 746.156,1542.65 529.273,1872.98 c -89.46,136.25 -232.378,292.59 -134.46,462.81 107.738,187.31 359.265,189.78 487.542,27.32 69.192,-87.63 53.586,-177.42 86.856,-274.16 31.419,-91.43 137.189,-135.91 223.789,-89.88 184.99,98.32 47.8,417.29 -40.06,540.01 -116.47,162.68 -304.686,267.22 -506.202,267.22" /><path
         id="path20"
         style="fill:#ffffff;fill-opacity:1;fill-rule:nonzero;stroke:none"
         d="M 1841.37,825.871 C 1801.29,865.949 1745.15,890 1681.02,890 c -60.13,0 -120.26,-24.051 -160.37,-64.129 V 2637.92 c 0,88.19 72.16,160.35 160.37,160.35 88.2,0 160.35,-72.16 160.35,-160.35 V 825.871" /><path
         id="path22"
         style="fill:#ffffff;fill-opacity:1;fill-rule:nonzero;stroke:none"
         d="m 3657.41,2806.3 c -348.79,0 -633.42,-296.67 -633.42,-661.49 v -36.06 l 0.01,0.01 V 825.871 c 40.09,40.078 100.22,64.129 160.35,64.129 64.15,0 120.27,-24.051 160.37,-64.129 V 2132.01 c 0,0.06 -0.02,0.11 -0.02,0.17 v 12.63 c 0,92.21 36.09,176.39 96.22,244.55 56.12,60.14 136.31,96.22 216.49,96.22 80.19,0 156.36,-36.08 212.48,-96.22 60.13,-68.16 96.22,-152.34 96.22,-244.55 0,-92.2 72.15,-160.36 160.35,-160.36 88.19,0 160.37,68.16 160.37,160.36 0,364.82 -284.63,661.49 -629.42,661.49" /><path
         id="path24"
         style="fill:#ffffff;fill-opacity:1;fill-rule:nonzero;stroke:none"
         d="m 2476.94,1097.76 c 0,-88.57 71.79,-160.369 160.36,-160.369 88.56,0 160.36,71.799 160.36,160.369 0,88.58 -71.8,160.37 -160.36,160.37 -88.57,0 -160.36,-71.79 -160.36,-160.37" /><path
         id="path26"
         style="fill:#ffffff;fill-opacity:1;fill-rule:nonzero;stroke:none"
         d="m 4164.91,1248.53 h -221.03 v 0 h -38.73 c -88.19,0 -160.35,-72.16 -160.35,-160.35 0,-88.211 72.16,-160.371 160.35,-160.371 h 159.59 v 0.011 h 100.17 c 88.19,0 160.35,72.149 160.35,160.35 0,88.21 -72.16,160.36 -160.35,160.36" /><path
         id="path28"
         style="fill:#ffffff;fill-opacity:1;fill-rule:nonzero;stroke:none"
         d="m 0,1097.76 c 0,-88.57 71.7969,-160.369 160.367,-160.369 88.555,0 160.352,71.799 160.352,160.369 0,88.58 -71.797,160.37 -160.352,160.37 C 71.7969,1258.13 0,1186.34 0,1097.76" /><path
         id="path30"
         style="fill:#ffffff;fill-opacity:1;fill-rule:nonzero;stroke:none"
         d="M 3665.36,0.0117188 C 3320.6,0.0117188 3035.95,296.66 3035.95,661.5 c 0,88.191 72.16,160.352 160.37,160.352 88.19,0 160.35,-72.161 160.35,-160.352 0,-92.211 32.07,-180.398 96.22,-244.551 56.14,-64.148 132.31,-96.219 212.47,-96.219 80.19,0 156.36,32.071 216.49,96.219 60.14,64.153 96.22,152.34 96.22,244.551 0,88.191 72.16,160.352 160.37,160.352 88.19,0 160.35,-72.161 160.35,-160.352 0,-364.84 -284.63,-661.4882812 -633.43,-661.4882812" /></g></g></svg>